<mxfile host="Electron" modified="2023-05-10T19:20:52.558Z" agent="Mozilla/5.0 (X11; Linux x86_64) AppleWebKit/537.36 (KHTML, like Gecko) draw.io/21.2.8 Chrome/106.0.5249.199 Electron/21.4.4 Safari/537.36" etag="uo1OSldM_bUW-WFdHBb1" version="21.2.8" type="device" pages="2">
  <diagram name="Flowchart" id="ECQMQJdbtYSlt36lPngu">
    <mxGraphModel dx="1434" dy="875" grid="1" gridSize="10" guides="1" tooltips="1" connect="1" arrows="1" fold="1" page="1" pageScale="1" pageWidth="850" pageHeight="1100" math="0" shadow="0">
      <root>
        <mxCell id="0" />
        <mxCell id="1" parent="0" />
        <mxCell id="J1kHPah_wmCZpX2cMxBV-17" style="edgeStyle=orthogonalEdgeStyle;rounded=0;orthogonalLoop=1;jettySize=auto;html=1;exitX=0.5;exitY=1;exitDx=0;exitDy=0;entryX=0.235;entryY=0.001;entryDx=0;entryDy=0;entryPerimeter=0;" parent="1" source="J1kHPah_wmCZpX2cMxBV-10" target="J1kHPah_wmCZpX2cMxBV-14" edge="1">
          <mxGeometry relative="1" as="geometry" />
        </mxCell>
        <mxCell id="J1kHPah_wmCZpX2cMxBV-10" value="Producer&lt;br&gt;" style="rounded=1;whiteSpace=wrap;html=1;" parent="1" vertex="1">
          <mxGeometry x="200" y="80" width="80" height="40" as="geometry" />
        </mxCell>
        <mxCell id="J1kHPah_wmCZpX2cMxBV-19" style="edgeStyle=orthogonalEdgeStyle;rounded=0;orthogonalLoop=1;jettySize=auto;html=1;exitX=0.5;exitY=1;exitDx=0;exitDy=0;entryX=0.589;entryY=-0.002;entryDx=0;entryDy=0;entryPerimeter=0;" parent="1" source="J1kHPah_wmCZpX2cMxBV-11" target="J1kHPah_wmCZpX2cMxBV-14" edge="1">
          <mxGeometry relative="1" as="geometry" />
        </mxCell>
        <mxCell id="J1kHPah_wmCZpX2cMxBV-11" value="Producer&lt;br&gt;" style="rounded=1;whiteSpace=wrap;html=1;" parent="1" vertex="1">
          <mxGeometry x="440" y="80" width="80" height="40" as="geometry" />
        </mxCell>
        <mxCell id="J1kHPah_wmCZpX2cMxBV-16" style="edgeStyle=orthogonalEdgeStyle;rounded=0;orthogonalLoop=1;jettySize=auto;html=1;exitX=0.5;exitY=1;exitDx=0;exitDy=0;entryX=0.411;entryY=-0.003;entryDx=0;entryDy=0;entryPerimeter=0;" parent="1" source="J1kHPah_wmCZpX2cMxBV-12" target="J1kHPah_wmCZpX2cMxBV-14" edge="1">
          <mxGeometry relative="1" as="geometry" />
        </mxCell>
        <mxCell id="J1kHPah_wmCZpX2cMxBV-12" value="Producer&lt;br&gt;" style="rounded=1;whiteSpace=wrap;html=1;" parent="1" vertex="1">
          <mxGeometry x="320" y="80" width="80" height="40" as="geometry" />
        </mxCell>
        <mxCell id="J1kHPah_wmCZpX2cMxBV-20" style="edgeStyle=orthogonalEdgeStyle;rounded=0;orthogonalLoop=1;jettySize=auto;html=1;exitX=0.5;exitY=1;exitDx=0;exitDy=0;entryX=0.766;entryY=-0.002;entryDx=0;entryDy=0;entryPerimeter=0;" parent="1" source="J1kHPah_wmCZpX2cMxBV-13" target="J1kHPah_wmCZpX2cMxBV-14" edge="1">
          <mxGeometry relative="1" as="geometry" />
        </mxCell>
        <mxCell id="J1kHPah_wmCZpX2cMxBV-13" value="Producer&lt;br&gt;" style="rounded=1;whiteSpace=wrap;html=1;" parent="1" vertex="1">
          <mxGeometry x="560" y="80" width="80" height="40" as="geometry" />
        </mxCell>
        <mxCell id="J1kHPah_wmCZpX2cMxBV-41" style="edgeStyle=orthogonalEdgeStyle;curved=1;rounded=0;orthogonalLoop=1;jettySize=auto;html=1;exitX=0.5;exitY=1;exitDx=0;exitDy=0;entryX=0.75;entryY=0;entryDx=0;entryDy=0;" parent="1" target="J1kHPah_wmCZpX2cMxBV-33" edge="1">
          <mxGeometry relative="1" as="geometry">
            <mxPoint x="420" y="880" as="sourcePoint" />
          </mxGeometry>
        </mxCell>
        <mxCell id="J1kHPah_wmCZpX2cMxBV-42" style="edgeStyle=orthogonalEdgeStyle;curved=1;rounded=0;orthogonalLoop=1;jettySize=auto;html=1;exitX=0.5;exitY=1;exitDx=0;exitDy=0;entryX=0.75;entryY=0;entryDx=0;entryDy=0;" parent="1" target="J1kHPah_wmCZpX2cMxBV-35" edge="1">
          <mxGeometry relative="1" as="geometry">
            <mxPoint x="420" y="880" as="sourcePoint" />
          </mxGeometry>
        </mxCell>
        <mxCell id="J1kHPah_wmCZpX2cMxBV-43" style="edgeStyle=orthogonalEdgeStyle;curved=1;rounded=0;orthogonalLoop=1;jettySize=auto;html=1;exitX=0.5;exitY=1;exitDx=0;exitDy=0;entryX=0.25;entryY=0;entryDx=0;entryDy=0;" parent="1" target="J1kHPah_wmCZpX2cMxBV-34" edge="1">
          <mxGeometry relative="1" as="geometry">
            <mxPoint x="420" y="880" as="sourcePoint" />
          </mxGeometry>
        </mxCell>
        <mxCell id="J1kHPah_wmCZpX2cMxBV-44" style="edgeStyle=orthogonalEdgeStyle;curved=1;rounded=0;orthogonalLoop=1;jettySize=auto;html=1;exitX=0.5;exitY=1;exitDx=0;exitDy=0;entryX=0.25;entryY=0;entryDx=0;entryDy=0;" parent="1" target="J1kHPah_wmCZpX2cMxBV-36" edge="1">
          <mxGeometry relative="1" as="geometry">
            <mxPoint x="420" y="880" as="sourcePoint" />
          </mxGeometry>
        </mxCell>
        <mxCell id="J1kHPah_wmCZpX2cMxBV-14" value="Vertical Container" style="swimlane;whiteSpace=wrap;html=1;" parent="1" vertex="1">
          <mxGeometry x="80" y="180" width="680" height="700" as="geometry" />
        </mxCell>
        <mxCell id="J1kHPah_wmCZpX2cMxBV-25" style="edgeStyle=orthogonalEdgeStyle;curved=1;rounded=0;orthogonalLoop=1;jettySize=auto;html=1;exitX=0.5;exitY=1;exitDx=0;exitDy=0;" parent="J1kHPah_wmCZpX2cMxBV-14" source="J1kHPah_wmCZpX2cMxBV-2" edge="1">
          <mxGeometry relative="1" as="geometry">
            <mxPoint x="339.9565217391305" y="210" as="targetPoint" />
          </mxGeometry>
        </mxCell>
        <mxCell id="J1kHPah_wmCZpX2cMxBV-2" value="Listener" style="rounded=1;whiteSpace=wrap;html=1;" parent="J1kHPah_wmCZpX2cMxBV-14" vertex="1">
          <mxGeometry x="280" y="130" width="120" height="40" as="geometry" />
        </mxCell>
        <mxCell id="J1kHPah_wmCZpX2cMxBV-27" style="edgeStyle=orthogonalEdgeStyle;curved=1;rounded=0;orthogonalLoop=1;jettySize=auto;html=1;exitX=0.5;exitY=1;exitDx=0;exitDy=0;entryX=0.5;entryY=0;entryDx=0;entryDy=0;" parent="J1kHPah_wmCZpX2cMxBV-14" source="J1kHPah_wmCZpX2cMxBV-4" target="J1kHPah_wmCZpX2cMxBV-7" edge="1">
          <mxGeometry relative="1" as="geometry" />
        </mxCell>
        <mxCell id="J1kHPah_wmCZpX2cMxBV-4" value="Router" style="rounded=1;whiteSpace=wrap;html=1;" parent="J1kHPah_wmCZpX2cMxBV-14" vertex="1">
          <mxGeometry x="280" y="210" width="120" height="40" as="geometry" />
        </mxCell>
        <mxCell id="J1kHPah_wmCZpX2cMxBV-29" style="edgeStyle=orthogonalEdgeStyle;curved=1;rounded=0;orthogonalLoop=1;jettySize=auto;html=1;exitX=0.5;exitY=1;exitDx=0;exitDy=0;entryX=0.5;entryY=0;entryDx=0;entryDy=0;" parent="J1kHPah_wmCZpX2cMxBV-14" source="J1kHPah_wmCZpX2cMxBV-7" target="J1kHPah_wmCZpX2cMxBV-9" edge="1">
          <mxGeometry relative="1" as="geometry" />
        </mxCell>
        <mxCell id="J1kHPah_wmCZpX2cMxBV-31" style="edgeStyle=orthogonalEdgeStyle;curved=1;rounded=0;orthogonalLoop=1;jettySize=auto;html=1;exitX=0.5;exitY=1;exitDx=0;exitDy=0;entryX=0.5;entryY=0;entryDx=0;entryDy=0;" parent="J1kHPah_wmCZpX2cMxBV-14" source="J1kHPah_wmCZpX2cMxBV-9" target="J1kHPah_wmCZpX2cMxBV-6" edge="1">
          <mxGeometry relative="1" as="geometry" />
        </mxCell>
        <mxCell id="J1kHPah_wmCZpX2cMxBV-32" style="edgeStyle=orthogonalEdgeStyle;curved=1;rounded=0;orthogonalLoop=1;jettySize=auto;html=1;exitX=1;exitY=0.5;exitDx=0;exitDy=0;entryX=0.5;entryY=0;entryDx=0;entryDy=0;" parent="J1kHPah_wmCZpX2cMxBV-14" source="J1kHPah_wmCZpX2cMxBV-9" target="J1kHPah_wmCZpX2cMxBV-21" edge="1">
          <mxGeometry relative="1" as="geometry" />
        </mxCell>
        <mxCell id="J1kHPah_wmCZpX2cMxBV-49" style="edgeStyle=orthogonalEdgeStyle;rounded=0;orthogonalLoop=1;jettySize=auto;html=1;exitX=0;exitY=0.5;exitDx=0;exitDy=0;entryX=0;entryY=0.5;entryDx=0;entryDy=0;curved=1;" parent="J1kHPah_wmCZpX2cMxBV-14" source="J1kHPah_wmCZpX2cMxBV-9" target="J1kHPah_wmCZpX2cMxBV-22" edge="1">
          <mxGeometry relative="1" as="geometry">
            <Array as="points">
              <mxPoint x="200" y="390" />
              <mxPoint x="200" y="550" />
            </Array>
          </mxGeometry>
        </mxCell>
        <mxCell id="J1kHPah_wmCZpX2cMxBV-9" value="Message processor" style="rounded=1;whiteSpace=wrap;html=1;" parent="J1kHPah_wmCZpX2cMxBV-14" vertex="1">
          <mxGeometry x="280" y="370" width="120" height="40" as="geometry" />
        </mxCell>
        <mxCell id="J1kHPah_wmCZpX2cMxBV-47" style="edgeStyle=orthogonalEdgeStyle;curved=1;rounded=0;orthogonalLoop=1;jettySize=auto;html=1;exitX=0.5;exitY=1;exitDx=0;exitDy=0;entryX=1;entryY=0.5;entryDx=0;entryDy=0;startArrow=classic;startFill=1;" parent="J1kHPah_wmCZpX2cMxBV-14" source="J1kHPah_wmCZpX2cMxBV-21" target="J1kHPah_wmCZpX2cMxBV-22" edge="1">
          <mxGeometry relative="1" as="geometry" />
        </mxCell>
        <mxCell id="J1kHPah_wmCZpX2cMxBV-21" value="Subscriber store" style="rounded=1;whiteSpace=wrap;html=1;" parent="J1kHPah_wmCZpX2cMxBV-14" vertex="1">
          <mxGeometry x="440" y="430" width="120" height="40" as="geometry" />
        </mxCell>
        <mxCell id="J1kHPah_wmCZpX2cMxBV-46" style="edgeStyle=orthogonalEdgeStyle;curved=1;rounded=0;orthogonalLoop=1;jettySize=auto;html=1;exitX=0.75;exitY=1;exitDx=0;exitDy=0;entryX=0.75;entryY=0;entryDx=0;entryDy=0;" parent="J1kHPah_wmCZpX2cMxBV-14" source="J1kHPah_wmCZpX2cMxBV-6" target="J1kHPah_wmCZpX2cMxBV-22" edge="1">
          <mxGeometry relative="1" as="geometry" />
        </mxCell>
        <mxCell id="J1kHPah_wmCZpX2cMxBV-6" value="Letter Store" style="rounded=1;whiteSpace=wrap;html=1;" parent="J1kHPah_wmCZpX2cMxBV-14" vertex="1">
          <mxGeometry x="280" y="430" width="120" height="40" as="geometry" />
        </mxCell>
        <mxCell id="J1kHPah_wmCZpX2cMxBV-45" style="edgeStyle=orthogonalEdgeStyle;curved=1;rounded=0;orthogonalLoop=1;jettySize=auto;html=1;exitX=0.25;exitY=0;exitDx=0;exitDy=0;entryX=0.25;entryY=1;entryDx=0;entryDy=0;" parent="J1kHPah_wmCZpX2cMxBV-14" source="J1kHPah_wmCZpX2cMxBV-22" target="J1kHPah_wmCZpX2cMxBV-6" edge="1">
          <mxGeometry relative="1" as="geometry" />
        </mxCell>
        <mxCell id="ck9zG7zbsWN2RlljJNpB-12" style="edgeStyle=orthogonalEdgeStyle;curved=1;rounded=0;orthogonalLoop=1;jettySize=auto;html=1;exitX=0.25;exitY=1;exitDx=0;exitDy=0;entryX=0.5;entryY=0;entryDx=0;entryDy=0;" edge="1" parent="J1kHPah_wmCZpX2cMxBV-14" source="J1kHPah_wmCZpX2cMxBV-22" target="ck9zG7zbsWN2RlljJNpB-8">
          <mxGeometry relative="1" as="geometry" />
        </mxCell>
        <mxCell id="ck9zG7zbsWN2RlljJNpB-13" style="edgeStyle=orthogonalEdgeStyle;curved=1;rounded=0;orthogonalLoop=1;jettySize=auto;html=1;exitX=0.5;exitY=1;exitDx=0;exitDy=0;entryX=0.5;entryY=0;entryDx=0;entryDy=0;" edge="1" parent="J1kHPah_wmCZpX2cMxBV-14" source="J1kHPah_wmCZpX2cMxBV-22" target="ck9zG7zbsWN2RlljJNpB-9">
          <mxGeometry relative="1" as="geometry" />
        </mxCell>
        <mxCell id="ck9zG7zbsWN2RlljJNpB-14" style="edgeStyle=orthogonalEdgeStyle;curved=1;rounded=0;orthogonalLoop=1;jettySize=auto;html=1;exitX=0.75;exitY=1;exitDx=0;exitDy=0;entryX=0.5;entryY=0;entryDx=0;entryDy=0;" edge="1" parent="J1kHPah_wmCZpX2cMxBV-14" source="J1kHPah_wmCZpX2cMxBV-22" target="ck9zG7zbsWN2RlljJNpB-10">
          <mxGeometry relative="1" as="geometry" />
        </mxCell>
        <mxCell id="J1kHPah_wmCZpX2cMxBV-22" value="Sender" style="rounded=1;whiteSpace=wrap;html=1;" parent="J1kHPah_wmCZpX2cMxBV-14" vertex="1">
          <mxGeometry x="280" y="510" width="120" height="40" as="geometry" />
        </mxCell>
        <mxCell id="J1kHPah_wmCZpX2cMxBV-5" value="Dead Letter Store" style="rounded=1;whiteSpace=wrap;html=1;" parent="J1kHPah_wmCZpX2cMxBV-14" vertex="1">
          <mxGeometry x="440" y="290" width="120" height="40" as="geometry" />
        </mxCell>
        <mxCell id="J1kHPah_wmCZpX2cMxBV-7" value="TCP parser" style="rounded=1;whiteSpace=wrap;html=1;" parent="J1kHPah_wmCZpX2cMxBV-14" vertex="1">
          <mxGeometry x="280" y="290" width="120" height="40" as="geometry" />
        </mxCell>
        <mxCell id="ck9zG7zbsWN2RlljJNpB-1" value="Listen Task" style="rounded=1;whiteSpace=wrap;html=1;" vertex="1" parent="J1kHPah_wmCZpX2cMxBV-14">
          <mxGeometry x="215" y="80" width="70" height="30" as="geometry" />
        </mxCell>
        <mxCell id="ck9zG7zbsWN2RlljJNpB-3" value="Listen Task" style="rounded=1;whiteSpace=wrap;html=1;" vertex="1" parent="J1kHPah_wmCZpX2cMxBV-14">
          <mxGeometry x="305" y="80" width="70" height="30" as="geometry" />
        </mxCell>
        <mxCell id="ck9zG7zbsWN2RlljJNpB-4" value="Listen Task" style="rounded=1;whiteSpace=wrap;html=1;" vertex="1" parent="J1kHPah_wmCZpX2cMxBV-14">
          <mxGeometry x="395" y="80" width="70" height="30" as="geometry" />
        </mxCell>
        <mxCell id="ck9zG7zbsWN2RlljJNpB-8" value="Listen Task" style="rounded=1;whiteSpace=wrap;html=1;" vertex="1" parent="J1kHPah_wmCZpX2cMxBV-14">
          <mxGeometry x="215" y="610" width="70" height="30" as="geometry" />
        </mxCell>
        <mxCell id="ck9zG7zbsWN2RlljJNpB-9" value="Listen Task" style="rounded=1;whiteSpace=wrap;html=1;" vertex="1" parent="J1kHPah_wmCZpX2cMxBV-14">
          <mxGeometry x="305" y="610" width="70" height="30" as="geometry" />
        </mxCell>
        <mxCell id="ck9zG7zbsWN2RlljJNpB-10" value="Listen Task" style="rounded=1;whiteSpace=wrap;html=1;" vertex="1" parent="J1kHPah_wmCZpX2cMxBV-14">
          <mxGeometry x="395" y="610" width="70" height="30" as="geometry" />
        </mxCell>
        <mxCell id="ck9zG7zbsWN2RlljJNpB-5" style="edgeStyle=orthogonalEdgeStyle;curved=1;rounded=0;orthogonalLoop=1;jettySize=auto;html=1;exitX=0.5;exitY=1;exitDx=0;exitDy=0;entryX=0;entryY=0.5;entryDx=0;entryDy=0;" edge="1" parent="J1kHPah_wmCZpX2cMxBV-14" source="ck9zG7zbsWN2RlljJNpB-1" target="J1kHPah_wmCZpX2cMxBV-2">
          <mxGeometry relative="1" as="geometry" />
        </mxCell>
        <mxCell id="ck9zG7zbsWN2RlljJNpB-6" style="edgeStyle=orthogonalEdgeStyle;curved=1;rounded=0;orthogonalLoop=1;jettySize=auto;html=1;exitX=0.5;exitY=1;exitDx=0;exitDy=0;entryX=0.5;entryY=0;entryDx=0;entryDy=0;" edge="1" parent="J1kHPah_wmCZpX2cMxBV-14" source="ck9zG7zbsWN2RlljJNpB-3" target="J1kHPah_wmCZpX2cMxBV-2">
          <mxGeometry relative="1" as="geometry" />
        </mxCell>
        <mxCell id="ck9zG7zbsWN2RlljJNpB-7" style="edgeStyle=orthogonalEdgeStyle;curved=1;rounded=0;orthogonalLoop=1;jettySize=auto;html=1;exitX=0.5;exitY=1;exitDx=0;exitDy=0;entryX=1;entryY=0.5;entryDx=0;entryDy=0;" edge="1" parent="J1kHPah_wmCZpX2cMxBV-14" source="ck9zG7zbsWN2RlljJNpB-4" target="J1kHPah_wmCZpX2cMxBV-2">
          <mxGeometry relative="1" as="geometry" />
        </mxCell>
        <mxCell id="J1kHPah_wmCZpX2cMxBV-37" style="edgeStyle=orthogonalEdgeStyle;curved=1;rounded=0;orthogonalLoop=1;jettySize=auto;html=1;exitX=0.25;exitY=0;exitDx=0;exitDy=0;" parent="1" source="J1kHPah_wmCZpX2cMxBV-33" edge="1">
          <mxGeometry relative="1" as="geometry">
            <mxPoint x="219.9565217391305" y="880" as="targetPoint" />
          </mxGeometry>
        </mxCell>
        <mxCell id="J1kHPah_wmCZpX2cMxBV-33" value="Consumer" style="rounded=1;whiteSpace=wrap;html=1;" parent="1" vertex="1">
          <mxGeometry x="200" y="960" width="80" height="40" as="geometry" />
        </mxCell>
        <mxCell id="J1kHPah_wmCZpX2cMxBV-39" style="edgeStyle=orthogonalEdgeStyle;curved=1;rounded=0;orthogonalLoop=1;jettySize=auto;html=1;exitX=0.75;exitY=0;exitDx=0;exitDy=0;" parent="1" source="J1kHPah_wmCZpX2cMxBV-34" edge="1">
          <mxGeometry relative="1" as="geometry">
            <mxPoint x="499.9565217391305" y="880" as="targetPoint" />
          </mxGeometry>
        </mxCell>
        <mxCell id="J1kHPah_wmCZpX2cMxBV-34" value="Consumer" style="rounded=1;whiteSpace=wrap;html=1;" parent="1" vertex="1">
          <mxGeometry x="440" y="960" width="80" height="40" as="geometry" />
        </mxCell>
        <mxCell id="J1kHPah_wmCZpX2cMxBV-38" style="edgeStyle=orthogonalEdgeStyle;curved=1;rounded=0;orthogonalLoop=1;jettySize=auto;html=1;exitX=0.25;exitY=0;exitDx=0;exitDy=0;" parent="1" source="J1kHPah_wmCZpX2cMxBV-35" edge="1">
          <mxGeometry relative="1" as="geometry">
            <mxPoint x="339.9565217391305" y="880" as="targetPoint" />
          </mxGeometry>
        </mxCell>
        <mxCell id="J1kHPah_wmCZpX2cMxBV-35" value="Consumer" style="rounded=1;whiteSpace=wrap;html=1;" parent="1" vertex="1">
          <mxGeometry x="320" y="960" width="80" height="40" as="geometry" />
        </mxCell>
        <mxCell id="J1kHPah_wmCZpX2cMxBV-40" style="edgeStyle=orthogonalEdgeStyle;curved=1;rounded=0;orthogonalLoop=1;jettySize=auto;html=1;exitX=0.75;exitY=0;exitDx=0;exitDy=0;" parent="1" source="J1kHPah_wmCZpX2cMxBV-36" edge="1">
          <mxGeometry relative="1" as="geometry">
            <mxPoint x="619.9565217391305" y="880" as="targetPoint" />
          </mxGeometry>
        </mxCell>
        <mxCell id="J1kHPah_wmCZpX2cMxBV-36" value="Consumer" style="rounded=1;whiteSpace=wrap;html=1;" parent="1" vertex="1">
          <mxGeometry x="560" y="960" width="80" height="40" as="geometry" />
        </mxCell>
      </root>
    </mxGraphModel>
  </diagram>
  <diagram id="t1rUXa6-CFG56WDpMC5G" name="Supervision_Diagram">
    <mxGraphModel dx="2537" dy="1029" grid="1" gridSize="10" guides="1" tooltips="1" connect="1" arrows="1" fold="1" page="1" pageScale="1" pageWidth="850" pageHeight="1100" math="0" shadow="0">
      <root>
        <mxCell id="0" />
        <mxCell id="1" parent="0" />
        <mxCell id="8WRGGbeypArQKT2ZHQw8-8" style="edgeStyle=orthogonalEdgeStyle;rounded=0;orthogonalLoop=1;jettySize=auto;html=1;exitX=0.5;exitY=1;exitDx=0;exitDy=0;entryX=0.5;entryY=0;entryDx=0;entryDy=0;" parent="1" source="AT3QqSpPeaxYGOkAIRCH-1" target="AT3QqSpPeaxYGOkAIRCH-2" edge="1">
          <mxGeometry relative="1" as="geometry">
            <Array as="points">
              <mxPoint x="420" y="180" />
              <mxPoint x="20" y="180" />
            </Array>
          </mxGeometry>
        </mxCell>
        <mxCell id="8WRGGbeypArQKT2ZHQw8-9" style="edgeStyle=orthogonalEdgeStyle;rounded=0;orthogonalLoop=1;jettySize=auto;html=1;exitX=0.5;exitY=1;exitDx=0;exitDy=0;entryX=0.5;entryY=0;entryDx=0;entryDy=0;" parent="1" source="AT3QqSpPeaxYGOkAIRCH-1" target="kC-iDzLTQm1_2_YxpSzI-1" edge="1">
          <mxGeometry relative="1" as="geometry" />
        </mxCell>
        <mxCell id="IWYitSBuebaEwUzmI06T-1" style="edgeStyle=orthogonalEdgeStyle;rounded=0;orthogonalLoop=1;jettySize=auto;html=1;exitX=0.5;exitY=1;exitDx=0;exitDy=0;entryX=0.5;entryY=0;entryDx=0;entryDy=0;" parent="1" source="AT3QqSpPeaxYGOkAIRCH-1" target="kC-iDzLTQm1_2_YxpSzI-2" edge="1">
          <mxGeometry relative="1" as="geometry" />
        </mxCell>
        <mxCell id="IdubBhTJ6KVnmxF-3DM4-1" style="edgeStyle=orthogonalEdgeStyle;rounded=0;orthogonalLoop=1;jettySize=auto;html=1;exitX=0.5;exitY=1;exitDx=0;exitDy=0;entryX=0.5;entryY=0;entryDx=0;entryDy=0;" parent="1" source="AT3QqSpPeaxYGOkAIRCH-1" target="NqWyjlFcCn3YYRd7Y2uH-1" edge="1">
          <mxGeometry relative="1" as="geometry">
            <Array as="points">
              <mxPoint x="420" y="180" />
              <mxPoint x="660" y="180" />
            </Array>
          </mxGeometry>
        </mxCell>
        <mxCell id="AT3QqSpPeaxYGOkAIRCH-1" value="Root Superivsor" style="rounded=1;whiteSpace=wrap;html=1;fillColor=#dae8fc;strokeColor=#6c8ebf;" parent="1" vertex="1">
          <mxGeometry x="360" y="120" width="120" height="40" as="geometry" />
        </mxCell>
        <mxCell id="8WRGGbeypArQKT2ZHQw8-5" style="edgeStyle=orthogonalEdgeStyle;rounded=0;orthogonalLoop=1;jettySize=auto;html=1;exitX=0.5;exitY=1;exitDx=0;exitDy=0;entryX=0.5;entryY=0;entryDx=0;entryDy=0;" parent="1" source="AT3QqSpPeaxYGOkAIRCH-2" target="NoBrGBiLEwMr9OptuPte-1" edge="1">
          <mxGeometry relative="1" as="geometry" />
        </mxCell>
        <mxCell id="8WRGGbeypArQKT2ZHQw8-6" style="edgeStyle=orthogonalEdgeStyle;rounded=0;orthogonalLoop=1;jettySize=auto;html=1;exitX=0.5;exitY=1;exitDx=0;exitDy=0;entryX=0.5;entryY=0;entryDx=0;entryDy=0;" parent="1" source="AT3QqSpPeaxYGOkAIRCH-2" target="NoBrGBiLEwMr9OptuPte-2" edge="1">
          <mxGeometry relative="1" as="geometry" />
        </mxCell>
        <mxCell id="8WRGGbeypArQKT2ZHQw8-7" style="edgeStyle=orthogonalEdgeStyle;rounded=0;orthogonalLoop=1;jettySize=auto;html=1;exitX=0.5;exitY=1;exitDx=0;exitDy=0;entryX=0.5;entryY=0;entryDx=0;entryDy=0;" parent="1" source="AT3QqSpPeaxYGOkAIRCH-2" target="AksgK6bISmPQZwzv8fdh-1" edge="1">
          <mxGeometry relative="1" as="geometry" />
        </mxCell>
        <mxCell id="AT3QqSpPeaxYGOkAIRCH-2" value="Store Supervisor" style="rounded=1;whiteSpace=wrap;html=1;fillColor=#dae8fc;strokeColor=#6c8ebf;" parent="1" vertex="1">
          <mxGeometry x="-40" y="200" width="120" height="40" as="geometry" />
        </mxCell>
        <mxCell id="8WRGGbeypArQKT2ZHQw8-3" style="edgeStyle=orthogonalEdgeStyle;rounded=0;orthogonalLoop=1;jettySize=auto;html=1;exitX=0.5;exitY=1;exitDx=0;exitDy=0;entryX=0.5;entryY=0;entryDx=0;entryDy=0;" parent="1" source="kC-iDzLTQm1_2_YxpSzI-1" target="8WRGGbeypArQKT2ZHQw8-2" edge="1">
          <mxGeometry relative="1" as="geometry" />
        </mxCell>
        <mxCell id="8WRGGbeypArQKT2ZHQw8-4" style="edgeStyle=orthogonalEdgeStyle;rounded=0;orthogonalLoop=1;jettySize=auto;html=1;exitX=0.5;exitY=1;exitDx=0;exitDy=0;entryX=0.5;entryY=0;entryDx=0;entryDy=0;" parent="1" source="kC-iDzLTQm1_2_YxpSzI-1" target="8WRGGbeypArQKT2ZHQw8-1" edge="1">
          <mxGeometry relative="1" as="geometry" />
        </mxCell>
        <mxCell id="kC-iDzLTQm1_2_YxpSzI-1" value="Sender Supervisor" style="rounded=1;whiteSpace=wrap;html=1;fillColor=#dae8fc;strokeColor=#6c8ebf;" parent="1" vertex="1">
          <mxGeometry x="280" y="200" width="118" height="40" as="geometry" />
        </mxCell>
        <mxCell id="IWYitSBuebaEwUzmI06T-2" style="edgeStyle=orthogonalEdgeStyle;rounded=0;orthogonalLoop=1;jettySize=auto;html=1;exitX=0.5;exitY=1;exitDx=0;exitDy=0;entryX=0.5;entryY=0;entryDx=0;entryDy=0;" parent="1" source="kC-iDzLTQm1_2_YxpSzI-2" target="8WRGGbeypArQKT2ZHQw8-10" edge="1">
          <mxGeometry relative="1" as="geometry" />
        </mxCell>
        <mxCell id="IWYitSBuebaEwUzmI06T-3" style="edgeStyle=orthogonalEdgeStyle;rounded=0;orthogonalLoop=1;jettySize=auto;html=1;exitX=0.5;exitY=1;exitDx=0;exitDy=0;entryX=0.5;entryY=0;entryDx=0;entryDy=0;" parent="1" source="kC-iDzLTQm1_2_YxpSzI-2" target="8WRGGbeypArQKT2ZHQw8-11" edge="1">
          <mxGeometry relative="1" as="geometry" />
        </mxCell>
        <mxCell id="kC-iDzLTQm1_2_YxpSzI-2" value="Listener Supervisor" style="rounded=1;whiteSpace=wrap;html=1;fillColor=#dae8fc;strokeColor=#6c8ebf;" parent="1" vertex="1">
          <mxGeometry x="760" y="200" width="120" height="40" as="geometry" />
        </mxCell>
        <mxCell id="IdubBhTJ6KVnmxF-3DM4-6" style="edgeStyle=orthogonalEdgeStyle;rounded=0;orthogonalLoop=1;jettySize=auto;html=1;exitX=0.5;exitY=1;exitDx=0;exitDy=0;entryX=0.5;entryY=0;entryDx=0;entryDy=0;" parent="1" source="NqWyjlFcCn3YYRd7Y2uH-1" target="IdubBhTJ6KVnmxF-3DM4-2" edge="1">
          <mxGeometry relative="1" as="geometry" />
        </mxCell>
        <mxCell id="IdubBhTJ6KVnmxF-3DM4-9" style="edgeStyle=orthogonalEdgeStyle;rounded=0;orthogonalLoop=1;jettySize=auto;html=1;exitX=0.5;exitY=1;exitDx=0;exitDy=0;entryX=0.5;entryY=0;entryDx=0;entryDy=0;" parent="1" source="NqWyjlFcCn3YYRd7Y2uH-1" target="IdubBhTJ6KVnmxF-3DM4-4" edge="1">
          <mxGeometry relative="1" as="geometry" />
        </mxCell>
        <mxCell id="H-gSmHVQMD8p21Hz-K33-1" style="edgeStyle=orthogonalEdgeStyle;curved=1;rounded=0;orthogonalLoop=1;jettySize=auto;html=1;exitX=0.5;exitY=1;exitDx=0;exitDy=0;entryX=0.5;entryY=0;entryDx=0;entryDy=0;" edge="1" parent="1" source="NqWyjlFcCn3YYRd7Y2uH-1" target="IdubBhTJ6KVnmxF-3DM4-3">
          <mxGeometry relative="1" as="geometry" />
        </mxCell>
        <mxCell id="NqWyjlFcCn3YYRd7Y2uH-1" value="Logic Supervisor" style="rounded=1;whiteSpace=wrap;html=1;fillColor=#dae8fc;strokeColor=#6c8ebf;" parent="1" vertex="1">
          <mxGeometry x="599.5" y="280" width="120" height="40" as="geometry" />
        </mxCell>
        <mxCell id="NoBrGBiLEwMr9OptuPte-1" value="Letter Store" style="rounded=1;whiteSpace=wrap;html=1;fillColor=#d5e8d4;strokeColor=#82b366;" parent="1" vertex="1">
          <mxGeometry x="-200" y="280" width="120" height="40" as="geometry" />
        </mxCell>
        <mxCell id="NoBrGBiLEwMr9OptuPte-2" value="Dead Letter Store" style="rounded=1;whiteSpace=wrap;html=1;fillColor=#d5e8d4;strokeColor=#82b366;" parent="1" vertex="1">
          <mxGeometry x="-39" y="280" width="119" height="40" as="geometry" />
        </mxCell>
        <mxCell id="AksgK6bISmPQZwzv8fdh-1" value="Subscriber Store" style="rounded=1;whiteSpace=wrap;html=1;fillColor=#d5e8d4;strokeColor=#82b366;" parent="1" vertex="1">
          <mxGeometry x="119" y="280" width="119" height="40" as="geometry" />
        </mxCell>
        <mxCell id="8WRGGbeypArQKT2ZHQw8-1" value="Sender Task" style="rounded=1;whiteSpace=wrap;html=1;fillColor=#d5e8d4;strokeColor=#82b366;" parent="1" vertex="1">
          <mxGeometry x="441" y="280" width="119" height="40" as="geometry" />
        </mxCell>
        <mxCell id="8WRGGbeypArQKT2ZHQw8-2" value="Sender" style="rounded=1;whiteSpace=wrap;html=1;fillColor=#d5e8d4;strokeColor=#82b366;" parent="1" vertex="1">
          <mxGeometry x="279" y="280" width="119" height="40" as="geometry" />
        </mxCell>
        <mxCell id="8WRGGbeypArQKT2ZHQw8-10" value="Listener" style="rounded=1;whiteSpace=wrap;html=1;fillColor=#d5e8d4;strokeColor=#82b366;" parent="1" vertex="1">
          <mxGeometry x="761" y="280" width="119" height="40" as="geometry" />
        </mxCell>
        <mxCell id="8WRGGbeypArQKT2ZHQw8-11" value="Listener Task" style="rounded=1;whiteSpace=wrap;html=1;fillColor=#d5e8d4;strokeColor=#82b366;" parent="1" vertex="1">
          <mxGeometry x="920" y="280" width="118" height="40" as="geometry" />
        </mxCell>
        <mxCell id="IdubBhTJ6KVnmxF-3DM4-2" value="Router" style="rounded=1;whiteSpace=wrap;html=1;fillColor=#d5e8d4;strokeColor=#82b366;" parent="1" vertex="1">
          <mxGeometry x="443" y="362" width="119" height="40" as="geometry" />
        </mxCell>
        <mxCell id="IdubBhTJ6KVnmxF-3DM4-3" value="TCP Parser" style="rounded=1;whiteSpace=wrap;html=1;fillColor=#d5e8d4;strokeColor=#82b366;" parent="1" vertex="1">
          <mxGeometry x="599.5" y="362" width="119" height="40" as="geometry" />
        </mxCell>
        <mxCell id="IdubBhTJ6KVnmxF-3DM4-4" value="Message Processor" style="rounded=1;whiteSpace=wrap;html=1;fillColor=#d5e8d4;strokeColor=#82b366;" parent="1" vertex="1">
          <mxGeometry x="763" y="362" width="119" height="40" as="geometry" />
        </mxCell>
      </root>
    </mxGraphModel>
  </diagram>
</mxfile>
